<svg xmlns="http://www.w3.org/2000/svg" width="208" height="152" viewBox="0 0 208 152">
  <g fill="#222">
    <path d="M9 18l31 5 15-8 22 9-10 8-31-2-17 7-13-8z" opacity=".72"/>
    <path d="M86 17l18-9 27 8 14-5 27 13-15 9-29-5-20 8-21-8z" opacity=".88"/>
    <path d="M17 48l22-7 19 7 25-5 17 13-13 8-24-4-20 9-17-7z" opacity=".67"/>
    <path d="M111 49l25-8 18 8 22-5 22 13-16 8-23-4-20 8-19-8z" opacity=".81"/>
    <path d="M5 95l28-10 25 7 20-4 23 14-16 10-30-6-21 10-20-8z" opacity=".85"/>
    <path d="M102 101l23-12 25 7 16-6 30 15-14 11-29-6-22 9-24-8z" opacity=".7"/>
    <path d="M36 132l20-9 25 5 19-7 25 13-16 9-27-4-22 8-18-7z" opacity=".62"/>
  </g>
  <g fill="#222" opacity=".48">
    <rect x="8" y="73" width="24" height="3"/><rect x="47" y="77" width="13" height="4"/>
    <rect x="76" y="71" width="18" height="3"/><rect x="126" y="75" width="26" height="4"/>
    <rect x="169" y="72" width="18" height="3"/><rect x="26" y="116" width="14" height="4"/>
  </g>
</svg>
