<svg xmlns="http://www.w3.org/2000/svg" width="224" height="144" viewBox="0 0 224 144">
  <g fill="#111">
    <path d="M7 29l20-10 20 4 19-11 17 9-7 9-24-2-16 8-21-1z" opacity=".86"/>
    <path d="M85 22l25-12 17 6 29-4 18 12-13 8-32-3-19 9-22-4z" opacity=".68"/>
    <path d="M30 58l18-7 28 7 20-4 19 13-14 8-27-4-20 8-21-7z" opacity=".78"/>
    <path d="M126 55l18-10 23 4 27-5 21 12-18 9-31-5-20 9-20-6z" opacity=".92"/>
    <path d="M7 99l26-8 21 5 18-7 23 12-11 10-27-2-22 8-27-6z" opacity=".63"/>
    <path d="M99 99l20-9 23 6 22-7 28 13-18 10-30-4-21 8-19-7z" opacity=".81"/>
  </g>
  <g fill="#111" opacity=".52">
    <rect x="18" y="41" width="17" height="4"/><rect x="55" y="38" width="9" height="3"/>
    <rect x="115" y="39" width="21" height="4"/><rect x="176" y="35" width="14" height="3"/>
    <rect x="13" y="82" width="12" height="3"/><rect x="80" y="84" width="18" height="4"/>
    <rect x="136" y="79" width="16" height="3"/><rect x="195" y="80" width="12" height="4"/>
  </g>
</svg>
