<svg xmlns="http://www.w3.org/2000/svg" width="192" height="160" viewBox="0 0 192 160">
  <g fill="#333" opacity=".66">
    <path d="M12 29c8-15 29-15 38-2 7 11-2 28-16 30-17 4-31-13-22-28z"/>
    <path d="M63 20c10-10 28-4 31 10 3 15-13 25-26 19-13-6-15-20-5-29z"/>
    <path d="M111 28c8-15 32-14 39 2 6 16-12 31-27 24-14-5-18-16-12-26z"/>
    <path d="M151 62c6-10 23-10 29 1 7 13-7 28-20 23-14-5-16-16-9-24z"/>
    <path d="M21 77c11-12 31-6 33 9 2 16-17 25-30 15-11-8-11-17-3-24z"/>
    <path d="M71 69c9-16 33-13 39 3 5 16-12 30-28 24-15-5-18-16-11-27z"/>
    <path d="M117 92c12-11 33-4 34 12 1 16-20 24-32 12-9-9-9-18-2-24z"/>
    <path d="M44 119c8-12 28-11 34 2 6 15-10 28-25 22-14-5-17-16-9-26z"/>
    <path d="M95 124c7-15 31-15 39 0 7 15-9 31-25 26-15-4-20-16-14-26z"/>
  </g>
  <g fill="#333" opacity=".32">
    <circle cx="20" cy="15" r="5"/><circle cx="103" cy="11" r="7"/><circle cx="166" cy="25" r="5"/>
    <circle cx="180" cy="120" r="7"/><circle cx="13" cy="142" r="6"/><circle cx="152" cy="146" r="5"/>
  </g>
</svg>
