<svg xmlns="http://www.w3.org/2000/svg" width="272" height="176" viewBox="0 0 272 176">
  <rect width="272" height="176" fill="#000"/>
  <path d="M19 86c11-38 48-59 84-53 28-24 75-18 91 15 39 7 58 53 34 83-20 26-57 27-82 17-32 19-84 20-112-4-21-18-24-40-15-65z" fill="#505050"/>
  <path d="M41 82c16-26 50-38 76-25 24-20 60-12 73 16 18 8 24 31 11 46-18 20-45 8-63 10-32 14-78 9-98-12-10-11-8-24 1-35z" fill="#6a6a6a" opacity=".58"/>
  <path d="M63 67c14-12 33-9 40 4 13-13 40-7 45 11 7 16-13 32-28 23-18 10-48 3-58-13-5-9-4-17 1-25z" fill="#858585" opacity=".28"/>
</svg>
