<svg xmlns="http://www.w3.org/2000/svg" width="304" height="140" viewBox="0 0 304 140">
  <rect width="304" height="140" fill="#000"/>
  <path d="M17 72c10-26 39-37 66-29 21-19 57-13 70 13 30-4 60 15 65 45 5 28-26 49-54 38-25 12-59 4-75-18-26 8-62-1-75-26-5-9-3-15 3-23z" fill="#4e4e4e"/>
  <path d="M39 73c13-15 36-17 52-5 20-15 48-5 54 17 23-7 47 5 49 25 2 17-21 27-37 17-23 8-47 1-59-16-23 7-49 0-61-16-5-7-4-15 2-22z" fill="#696969" opacity=".56"/>
  <path d="M73 76c11-8 25-4 30 6 12-8 30 0 31 14 1 13-16 20-27 12-14 6-32 0-37-11-3-7-2-14 3-21z" fill="#888" opacity=".25"/>
</svg>
