<svg xmlns="http://www.w3.org/2000/svg" width="196" height="284" viewBox="0 0 196 284">
  <rect width="196" height="284" fill="#000"/>
  <path d="M98 18c28 3 41 34 35 58 29 19 35 62 9 85 13 35-14 76-49 78-34 1-60-37-47-68-26-26-14-70 15-87-5-29 12-68 37-66z" fill="#4b4b4b"/>
  <path d="M94 42c19 7 24 32 17 48 19 16 18 46 1 61 8 23-11 46-33 42-21-4-33-30-23-48-17-19-8-46 11-56-2-22 8-52 27-47z" fill="#686868" opacity=".6"/>
  <path d="M93 77c14 2 18 19 11 30 13 10 10 28-2 35-13 8-30-5-29-19-9-13 1-32 20-46z" fill="#898989" opacity=".27"/>
</svg>
